#!OML:ASF I:\Actors\actors\Patient Classification 1\Patient 1\Session 1\Subject1.ASF
:FULLY-SPECIFIED
:DEGREES
544
root 0.570574 17.6183 9.54203 17.3566 -2.69811 -10.1234
lowerback 5.38406 3.82115 9.32525
upperback -5.91721 5.98472 -0.967212
thorax -8.30453 2.31927 -6.94537
lowerneck -17.3992 -8.13993 -5.74886
upperneck 12.1153 -11.8962 13.1022
head 7.7785 -4.81505 3.77238
rclavicle 4.18442e-014 2.06736e-014
rhumerus 54.1294 27.7471 -28.1169
rradius 42.5034
rwrist 8.73143
rhand 31.0215 -49.1208
rfingers 7.12502
rthumb 54.6229 -427.529
lclavicle 4.18442e-014 2.06736e-014
lhumerus 14.0586 -31.6198 89.7843
lradius 51.8601
lwrist 20.9357
lhand -33.8953 -16.3152
lfingers 7.12502
lthumb -7.07849 13.5464
rfemur -11.6486 28.9218 23.0542
rtibia 0.744939
rfoot -10.7485 -28.7909
rtoes 7.54584
lfemur -3.21733 -56.5055 -3.76905
ltibia -4.62553
lfoot -51.3983 61.1707
ltoes 28.2958
545
root 0.571683 17.6183 9.54021 17.3518 -2.72988 -10.1428
lowerback 5.40859 3.81206 9.36042
upperback -5.90986 5.97682 -0.983326
thorax -8.30782 2.31253 -6.9835
lowerneck -17.5258 -8.1222 -5.71073
upperneck 12.2395 -11.8933 13.1013
head 7.83877 -4.80152 3.763
rclavicle -6.95746e-015 7.95139e-016
rhumerus 54.2524 27.9738 -27.9627
rradius 42.496
rwrist 9.98513
rhand 29.5929 -47.7731
rfingers 7.12502
rthumb 53.3406 -427.047
lclavicle -6.95746e-015 7.95139e-016
lhumerus 14.096 -31.6476 89.704
lradius 51.8664
lwrist 20.907
lhand -33.9735 -16.3166
lfingers 7.12502
lthumb -7.15401 13.5425
rfemur -11.6519 28.9826 23.054
rtibia 0.739837
rfoot -10.8437 -28.798
rtoes 7.80099
lfemur -3.16717 -56.69 -3.79067
ltibia -4.60392
lfoot -51.967 61.1554
ltoes 28.5871
546
root 0.57216 17.6181 9.5381 17.3487 -2.74893 -10.1209
lowerback 5.42536 3.80514 9.32792
upperback -5.90068 5.96425 -1.00103
thorax -8.31056 2.30787 -6.98447
lowerneck -17.6252 -8.09974 -5.67387
upperneck 12.3463 -11.8802 13.0902
head 7.88693 -4.78599 3.75271
rclavicle 3.69739e-014 -1.59028e-014
rhumerus 54.3409 28.2732 -27.3808
rradius 42.6764
rwrist 12.8067
rhand 27.8552 -44.8651
rfingers 7.12502
rthumb 51.7687 -425.107
lclavicle 3.69739e-014 -1.59028e-014
lhumerus 14.1365 -31.6785 89.6492
lradius 51.8584
lwrist 20.8124
lhand -34.001 -16.2562
lfingers 7.12502
lthumb -7.1805 13.602
rfemur -11.6717 28.9281 23.0205
rtibia 0.758194
rfoot -10.8414 -28.7278
rtoes 7.83969
lfemur -3.17991 -56.7481 -3.80876
ltibia -4.58488
lfoot -52.2314 61.0773
ltoes 28.7765
547
root 0.570451 17.6181 9.53629 17.3433 -2.81181 -10.1161
lowerback 5.45029 3.82191 9.24172
upperback -5.89705 5.98138 -0.994462
thorax -8.32555 2.32107 -6.93319
lowerneck -17.6675 -8.07601 -5.6988
upperneck 12.4313 -11.8578 13.1258
head 7.9243 -4.7681 3.77073
rclavicle 6.94752e-014 3.65764e-014
rhumerus 54.3574 28.5121 -26.6688
rradius 42.8487
rwrist 16.9821
rhand 26.1676 -40.5536
rfingers 7.12502
rthumb 50.2309 -421.654
lclavicle 6.94752e-014 3.65764e-014
lhumerus 14.16 -31.6893 89.6625
lradius 51.824
lwrist 20.6709
lhand -33.919 -16.1233
lfingers 7.12502
lthumb -7.1014 13.7376
rfemur -11.6888 28.8878 23.0156
rtibia 0.765826
rfoot -10.7085 -28.6523
rtoes 7.55426
lfemur -3.12442 -56.7531 -3.86058
ltibia -4.59976
lfoot -52.2849 61.1284
ltoes 28.7321
548
root 0.569487 17.6182 9.53565 17.349 -2.84285 -10.1359
lowerback 5.43748 3.83718 9.18892
upperback -5.88752 5.99669 -0.970005
thorax -8.31141 2.33405 -6.87703
lowerneck -17.6776 -8.05821 -5.67345
upperneck 12.4633 -11.8316 13.0648
head 7.92781 -4.75828 3.75005
rclavicle 2.92213e-014 -5.56597e-015
rhumerus 54.3197 28.5262 -26.241
rradius 42.7294
rwrist 21.5923
rhand 24.8076 -35.0039
rfingers 7.12502
rthumb 48.9844 -416.744
lclavicle 2.92213e-014 -5.56597e-015
lhumerus 14.1648 -31.6695 89.7302
lradius 51.8132
lwrist 20.5932
lhand -33.8332 -16.0845
lfingers 7.12502
lthumb -7.01856 13.7791
rfemur -11.7008 28.8142 23.04
rtibia 0.758577
rfoot -10.614 -28.5532
rtoes 7.2898
lfemur -3.08054 -56.8468 -3.86877
ltibia -4.60608
lfoot -52.5948 61.1662
ltoes 28.8147
549
root 0.569703 17.618 9.53647 17.3541 -2.81277 -10.1271
lowerback 5.40587 3.83043 9.13781
upperback -5.88271 5.98135 -0.939286
thorax -8.29758 2.33192 -6.81097
lowerneck -17.6855 -8.05719 -5.64172
upperneck 12.515 -11.8243 12.9594
head 7.93556 -4.76046 3.71096
rclavicle -1.0138e-014 2.78299e-014
rhumerus 54.3412 28.4543 -25.8343
rradius 42.3875
rwrist 25.35
rhand 23.714 -28.9239
rfingers 7.12502
rthumb 47.978 -411.147
lclavicle -1.0138e-014 2.78299e-014
lhumerus 14.0975 -31.6162 89.8444
lradius 51.8495
lwrist 20.5906
lhand -33.8325 -16.0683
lfingers 7.12502
lthumb -7.01788 13.7953
rfemur -11.685 28.7576 23.0355
rtibia 0.738477
rfoot -10.6685 -28.5099
rtoes 7.37924
lfemur -3.08174 -57.0137 -3.87451
ltibia -4.58009
lfoot -52.984 61.1605
ltoes 28.9961
550
root 0.569061 17.618 9.53754 17.3486 -2.76801 -10.0964
lowerback 5.40115 3.81685 9.06303
upperback -5.89009 5.9582 -0.908492
thorax -8.31632 2.32491 -6.73443
lowerneck -17.7077 -8.07319 -5.68738
upperneck 12.6206 -11.8423 12.93
head 7.97641 -4.76873 3.70534
rclavicle 6.56983e-014 4.6118e-014
rhumerus 54.3673 28.3888 -25.3859
rradius 41.9947
rwrist 27.8219
rhand 22.3926 -23.3382
rfingers 7.12502
rthumb 46.7571 -406.111
lclavicle 6.56983e-014 4.6118e-014
lhumerus 14.008 -31.5529 89.9714
lradius 51.8681
lwrist 20.6048
lhand -33.8831 -16.0473
lfingers 7.12502
lthumb -7.06669 13.8147
rfemur -11.6522 28.7847 23.0064
rtibia 0.713371
rfoot -10.7914 -28.5612
rtoes 7.72118
lfemur -3.09605 -57.0691 -3.89423
ltibia -4.56664
lfoot -52.9484 61.1812
ltoes 28.9863
